<svg width="128" height="128" viewBox="0 0 128 128" fill="none" xmlns="http://www.w3.org/2000/svg">
<path d="
M128 8.00001
C128 3.58173 124.415 -0.0260467 120.005 0.249916
C105.93 1.13073 92.0791 4.33273 79.0165 9.74342
C63.4868 16.176 49.3762 25.6044 37.4903 37.4903
C25.6044 49.3762 16.176 63.4869 9.74341 79.0165
C4.33272 92.0791 1.13072 105.93 0.249914 120.005
C-0.0260473 124.415 3.58172 128 8 128
H27.84
C32.2583 128 35.8039 124.412 36.187 120.01
C37.0019 110.646 39.2461 101.445 42.8553 92.7319
C47.4867 81.5505 54.2752 71.3909 62.833 62.833
C71.3909 54.2752 81.5505 47.4867 92.7319 42.8553
C101.445 39.2462 110.646 37.0019 120.01 36.187
C124.412 35.8039 128 32.2583 128 27.84
V8.00001
Z" fill="#2ED33E"/>
</svg>
