<svg width="128" height="128" viewBox="0 0 128 128" fill="none" xmlns="http://www.w3.org/2000/svg">
<path d="M64 128C99.3462 128 128 99.3462 128 64C128 28.6538 99.3462 0 64 0C28.6538 0 0 28.6538 0 64C0 99.3462 28.6538 128 64 128Z" fill="#A1A4B1"/>
<path fill-rule="evenodd" clip-rule="evenodd" d="M64 6.10352e-05C28.6538 6.10352e-05 0 28.6538 0 64.0001C0 99.3463 28.6538 128 64 128C99.3462 128 128 99.3463 128 64.0001C128 28.6538 99.3462 6.10352e-05 64 6.10352e-05ZM51.1083 51.1956C51.1083 51.7478 51.5561 52.1956 52.1083 52.1956H75.8506C76.4028 52.1956 76.8506 51.7478 76.8506 51.1956V47.1214C76.8506 46.6737 77.1509 46.2864 77.5692 46.1268C79.9614 45.2136 81.615 43.3056 81.615 41.1022C81.615 37.9733 78.3439 35.4844 74.2195 35.4844C73.4974 35.4844 72.8127 35.5593 72.1655 35.7089C71.7336 35.8087 71.2764 35.6578 70.9944 35.3157C69.3361 33.3035 66.8355 32 63.9795 32C61.1234 32 58.6228 33.3035 56.9645 35.3157C56.6826 35.6578 56.2253 35.8087 55.7934 35.7089C55.1462 35.5593 54.4615 35.4844 53.7395 35.4844C49.6861 35.4844 46.3439 38.0444 46.3439 41.1022C46.4087 43.3699 48.0084 45.2835 50.3899 46.1973C50.8079 46.3577 51.1083 46.7448 51.1083 47.1925V51.1956ZM63.8372 69.9022C56.655 69.9022 50.8239 63.7867 50.8239 56.2489C50.8239 55.68 50.895 55.1111 50.9661 54.5423L50.9662 54.5422H75.9252C76.397 54.5422 76.7856 54.9247 76.815 55.3956L76.815 55.3958C76.8328 55.6801 76.8506 55.9645 76.8506 56.2489C76.8506 63.7867 71.0194 69.9022 63.8372 69.9022ZM71.123 70.4401C74.3147 71.246 88.5284 75.4483 89.935 86.9689C90.0772 88.1778 89.5795 89.3867 88.5839 90.0978C85.6684 92.0889 78.2728 96 63.9795 96C49.6861 96 42.2906 92.0889 39.375 90.0978C38.3795 89.3867 37.8817 88.1778 38.0239 86.9689C39.5 75.3618 53.6997 71.2243 56.9123 70.4355C57.2026 70.3642 57.5011 70.4378 57.7443 70.6116C61.4953 73.2915 66.5297 73.2924 70.2817 70.6145C70.5273 70.4392 70.8304 70.3663 71.123 70.4401ZM56.1572 89.3867C56.1572 90.24 56.8683 90.9511 57.7217 90.9511C58.575 90.9511 59.2861 90.24 59.2861 89.3867C59.2861 88.5333 58.575 87.8222 57.7217 87.8222C56.8683 87.8222 56.1572 88.5333 56.1572 89.3867ZM56.1572 79.9289C56.1572 80.7822 56.8683 81.4933 57.7217 81.4933C58.575 81.4933 59.2861 80.7822 59.2861 79.9289C59.2861 79.0755 58.575 78.3644 57.7217 78.3644C56.8683 78.3644 56.1572 79.0755 56.1572 79.9289ZM68.8861 89.3867C68.8861 90.24 69.5972 90.9511 70.4506 90.9511C71.3039 90.9511 72.015 90.24 72.015 89.3867C72.015 88.5333 71.3039 87.8222 70.4506 87.8222C69.5972 87.8222 68.8861 88.5333 68.8861 89.3867ZM68.8861 79.9289C68.8861 80.7822 69.5972 81.4933 70.4506 81.4933C71.3039 81.4933 72.015 80.7822 72.015 79.9289C72.015 79.0755 71.3039 78.3644 70.4506 78.3644C69.5972 78.3644 68.8861 79.0755 68.8861 79.9289Z" fill="#F0F1F3"/>
</svg>
