<svg width="24" height="24" viewBox="0 0 24 24" fill="none" xmlns="http://www.w3.org/2000/svg">
<path d="M23.5 12C23.5 18.3614 18.3614 23.5 12 23.5C5.63864 23.5 0.5 18.3614 0.5 12C0.5 5.63864 5.63864 0.5 12 0.5C18.3614 0.5 23.5 5.63864 23.5 12Z" fill="#37415F" stroke="white"/>
<path d="M10.6815 14.6815C10.6815 13.8033 10.7821 13.1039 10.9834 12.5833C11.1846 12.0627 11.5516 11.5515 12.0844 11.0497C12.623 10.5417 12.9811 10.1308 13.1587 9.8172C13.3363 9.49731 13.4251 9.16174 13.4251 8.81048C13.4251 7.75045 12.9634 7.22043 12.04 7.22043C11.6019 7.22043 11.2497 7.3647 10.9834 7.65323C10.7229 7.93548 10.5868 8.32751 10.5749 8.8293H8C8.01184 7.63127 8.37588 6.69355 9.09212 6.01613C9.81428 5.33871 10.7969 5 12.04 5C13.2949 5 14.2686 5.32303 14.9612 5.96909C15.6537 6.60887 16 7.51523 16 8.68817C16 9.22133 15.8875 9.72625 15.6626 10.203C15.4377 10.6734 15.044 11.1971 14.4817 11.7742L13.7625 12.4987C13.3126 12.9565 13.0551 13.4928 12.99 14.1075L12.9545 14.6815H10.6815ZM10.424 17.5699C10.424 17.1496 10.5572 16.8047 10.8235 16.5349C11.0958 16.259 11.4421 16.121 11.8624 16.121C12.2826 16.121 12.626 16.259 12.8923 16.5349C13.1646 16.8047 13.3008 17.1496 13.3008 17.5699C13.3008 17.9839 13.1676 18.3257 12.9012 18.5954C12.6408 18.8651 12.2945 19 11.8624 19C11.4303 19 11.081 18.8651 10.8147 18.5954C10.5542 18.3257 10.424 17.9839 10.424 17.5699Z" fill="white"/>
</svg>
