<svg width="24" height="24" viewBox="0 0 24 24" fill="none" xmlns="http://www.w3.org/2000/svg">
<path d="M12 0C5.37985 0 0 5.37985 0 12C0 18.6202 5.37985 24 12 24C18.6202 24 24 18.6202 24 12C24 5.37985 18.6202 0 12 0ZM17.3643 9.25581C17.3643 9.37984 17.3643 9.48837 17.3643 9.6124C17.3643 13.2558 14.5891 17.4729 9.50388 17.4729C7.93798 17.4729 6.49612 17.0233 5.27132 16.2326C5.48837 16.2636 5.70543 16.2791 5.92248 16.2791C7.22481 16.2791 8.4031 15.845 9.34884 15.1008C8.15504 15.0698 7.13178 14.2636 6.77519 13.1783C6.94574 13.2093 7.11628 13.2248 7.28682 13.2248C7.53488 13.2248 7.78295 13.1938 8.0155 13.1318C6.75969 12.8837 5.79845 11.7674 5.79845 10.4186C5.79845 10.4031 5.79845 10.3876 5.79845 10.3876C6.17054 10.5891 6.58915 10.7132 7.05426 10.7287C6.31008 10.2326 5.82946 9.39535 5.82946 8.43411C5.82946 7.92248 5.96899 7.45736 6.20155 7.03876C7.56589 8.71318 9.6124 9.81395 11.907 9.92248C11.8605 9.72093 11.8295 9.50388 11.8295 9.28682C11.8295 7.76744 13.0698 6.52713 14.5891 6.52713C15.3798 6.52713 16.1085 6.86822 16.6047 7.39535C17.2403 7.27132 17.8295 7.03876 18.3566 6.72868C18.155 7.37985 17.7054 7.92248 17.1473 8.26357C17.7054 8.20155 18.2481 8.04651 18.7287 7.82946C18.3721 8.3876 17.8915 8.86822 17.3643 9.25581Z" fill="#8B90A0"/>
</svg>
