<svg width="48" height="48" viewBox="0 0 48 48" fill="none" xmlns="http://www.w3.org/2000/svg">
<path d="M36 26H34.64L30.64 30H34.46L38 34H10L13.56 30H17.66L13.66 26H12L6 32V40C6 42.2 7.78 44 9.98 44H38C40.2 44 42 42.22 42 40V32L36 26ZM38 40H10V38H38V40ZM22.68 30.04C23.46 30.82 24.72 30.82 25.5 30.04L38.22 17.32C39 16.54 39 15.28 38.22 14.5L28.32 4.59996C27.56 3.79996 26.3 3.79996 25.52 4.57996L12.78 17.32C12 18.1 12 19.36 12.78 20.14L22.68 30.04ZM26.92 8.81996L34 15.9L24.1 25.8L17.02 18.72L26.92 8.81996Z" fill="#8B90A0"/>
</svg>
