<svg width="64" height="64" viewBox="0 0 64 64" fill="none" xmlns="http://www.w3.org/2000/svg">
<path d="M47.4176 9.36163H17.1696C17.1696 9.36163 13.9617 33.2964 32.3009 33.2964C32.3009 33.2964 49.7906 33.8677 47.4176 9.36163Z" fill="url(#VotinReward-paint0_linear)"/>
<path d="M32.272 13.9756C40.6369 13.9756 47.4179 12.041 47.4179 9.65446C47.4179 7.26796 40.6369 5.33331 32.272 5.33331C23.9071 5.33331 17.126 7.26796 17.126 9.65446C17.126 12.041 23.9071 13.9756 32.272 13.9756Z" fill="url(#VotinReward-paint1_linear)"/>
<path opacity="0.08" d="M32.272 13.9756C40.6369 13.9756 47.4179 12.041 47.4179 9.65446C47.4179 7.26796 40.6369 5.33331 32.272 5.33331C23.9071 5.33331 17.126 7.26796 17.126 9.65446C17.126 12.041 23.9071 13.9756 32.272 13.9756Z" fill="#232735"/>
<path d="M25.2114 58.6667H40.4014V43.4768H25.2114V58.6667Z" fill="url(#VotinReward-paint2_linear)"/>
<path d="M30.4994 43.4766H33.7366V28.565H30.4994V43.4766Z" fill="url(#VotinReward-paint3_linear)"/>
<path d="M45.2499 18.0917H50.6696C52.2236 18.0917 53.7139 18.709 54.8127 19.8079C55.9115 20.9067 56.5288 22.397 56.5288 23.9509C56.5288 25.5049 55.9115 26.9952 54.8127 28.094C53.7139 29.1928 52.2236 29.8101 50.6696 29.8101H35.2307" stroke="url(#VotinReward-paint4_linear)" stroke-width="4.40714" stroke-miterlimit="10"/>
<path d="M19.2789 18.0917H13.8592C12.3052 18.0917 10.8149 18.709 9.71611 19.8079C8.6173 20.9067 8 22.397 8 23.9509C8 25.5049 8.6173 26.9952 9.71611 28.094C10.8149 29.1928 12.3052 29.8101 13.8592 29.8101H29.2981" stroke="url(#VotinReward-paint5_linear)" stroke-width="4.40714" stroke-miterlimit="10"/>
<path opacity="0.46" d="M37.325 27.5836C40.205 27.5836 42.5397 25.249 42.5397 22.369C42.5397 19.489 40.205 17.1543 37.325 17.1543C34.445 17.1543 32.1104 19.489 32.1104 22.369C32.1104 25.249 34.445 27.5836 37.325 27.5836Z" fill="white"/>
<defs>
<linearGradient id="VotinReward-paint0_linear" x1="16.9541" y1="9.36163" x2="50.8523" y2="15.4727" gradientUnits="userSpaceOnUse">
<stop stop-color="#FF6B00"/>
<stop offset="1" stop-color="#F9A605"/>
</linearGradient>
<linearGradient id="VotinReward-paint1_linear" x1="17.126" y1="5.33331" x2="44.9241" y2="19.0351" gradientUnits="userSpaceOnUse">
<stop stop-color="#FF6B00"/>
<stop offset="1" stop-color="#F9A605"/>
</linearGradient>
<linearGradient id="VotinReward-paint2_linear" x1="40.4014" y1="58.6667" x2="23.4113" y2="56.2775" gradientUnits="userSpaceOnUse">
<stop stop-color="#FF6B00"/>
<stop offset="1" stop-color="#F9A605"/>
</linearGradient>
<linearGradient id="VotinReward-paint3_linear" x1="33.7366" y1="43.4766" x2="30.0476" y2="43.364" gradientUnits="userSpaceOnUse">
<stop stop-color="#FF6B00"/>
<stop offset="1" stop-color="#F9A605"/>
</linearGradient>
<linearGradient id="VotinReward-paint4_linear" x1="35.2307" y1="18.0917" x2="58.0342" y2="23.92" gradientUnits="userSpaceOnUse">
<stop stop-color="#FF6B00"/>
<stop offset="1" stop-color="#F9A605"/>
</linearGradient>
<linearGradient id="VotinReward-paint5_linear" x1="8" y1="18.0917" x2="30.8036" y2="23.92" gradientUnits="userSpaceOnUse">
<stop stop-color="#FF6B00"/>
<stop offset="1" stop-color="#F9A605"/>
</linearGradient>
</defs>
</svg>
