
  <svg width="33" height="32" viewBox="0 0 33 32" fill="none" xmlns="http://www.w3.org/2000/svg">
    <g clipPath="url(#Temple-clip0)">
      <path d="M22.6562 9.85H27.575L25.1125 0H7.88745L10.3437 9.85H15.2687L17.7312 19.6938H14.6562L15.8875 24.6188H18.9625L20.1937 29.5438H27.575L22.6562 9.85Z" fill="url(#Temple-paint0_linear)" />
      <path d="M25.1125 12.3124H23.2687L22.6562 9.84988H27.575L25.1125 12.3124Z" fill="url(#Temple-paint1_linear)" />
      <path d="M22.6563 4.9249H11.575L11.2688 3.69365H23.5813L22.6563 4.9249Z" fill="url(#Temple-paint2_linear)" />
      <path d="M7.88755 12.3125L5.42505 2.4625L7.88755 0L10.3438 9.85L7.88755 12.3125Z" fill="url(#Temple-paint3_linear)" />
      <path d="M18.9625 24.6187H15.8875L13.425 27.0812H16.5L18.9625 24.6187Z" fill="url(#Temple-paint4_linear)" />
      <path d="M12.8062 12.3124H7.88745L10.3437 9.84988H15.2687L12.8062 12.3124Z" fill="url(#Temple-paint5_linear)" />
      <path d="M17.7314 19.6936H14.6564L12.8064 12.3124L15.2689 9.84988L17.7314 19.6936Z" fill="url(#Temple-paint6_linear)" />
      <path d="M15.8876 24.6188L14.6563 19.6938L12.1938 22.1563L13.4251 27.0813L15.8876 24.6188Z" fill="url(#Temple-paint7_linear)" />
      <path d="M20.1938 29.5437L18.9625 24.6187L16.5 27.0812L17.7313 31.9999L20.1938 29.5437Z" fill="url(#Temple-paint8_linear)" />
      <path d="M25.1125 29.5437L19.575 7.38748L18.5938 8.36873L23.8875 29.5437L22.9 30.525H24.1313L25.1125 29.5437Z" fill="url(#Temple-paint9_linear)" />
      <path d="M24.5 7.3874H23.2687L22.6562 4.9249L23.5812 3.69365L24.5 7.3874Z" fill="url(#Temple-paint10_linear)" />
      <path d="M25.1127 29.5439L24.1315 30.5251H22.9002L23.8877 29.5439H20.1939L17.7314 32.0001H25.1127L27.5752 29.5439H25.1127Z" fill="url(#Temple-paint11_linear)" />
    </g>
    <defs>
      <linearGradient id="Temple-paint0_linear" x1="7.88457" y1="14.7715" x2="27.5769" y2="14.7715" gradientUnits="userSpaceOnUse">
        <stop offset="0.00188079" stopColor="#FCC33C" />
        <stop offset="1" stopColor="#FFEE50" />
      </linearGradient>
      <linearGradient id="Temple-paint1_linear" x1="27.5769" y1="11.079" x2="22.6538" y2="11.079" gradientUnits="userSpaceOnUse">
        <stop stopColor="#FB9828" />
        <stop offset="1" stopColor="#F96C13" />
      </linearGradient>
      <linearGradient id="Temple-paint2_linear" x1="23.5785" y1="4.30981" x2="11.2693" y2="4.30981" gradientUnits="userSpaceOnUse">
        <stop stopColor="#F84200" />
        <stop offset="1" stopColor="#F96C13" />
      </linearGradient>
      <linearGradient id="Temple-paint3_linear" x1="6.44014" y1="0.362381" x2="9.32919" y2="11.9498" gradientUnits="userSpaceOnUse">
        <stop stopColor="#F96C13" />
        <stop offset="1" stopColor="#FB9828" />
      </linearGradient>
      <linearGradient id="Temple-paint4_linear" x1="13.4231" y1="25.8483" x2="18.9616" y2="25.8483" gradientUnits="userSpaceOnUse">
        <stop stopColor="#F84200" />
        <stop offset="1" stopColor="#F96C13" />
      </linearGradient>
      <linearGradient id="Temple-paint5_linear" x1="7.88457" y1="11.079" x2="15.2692" y2="11.079" gradientUnits="userSpaceOnUse">
        <stop stopColor="#F84200" />
        <stop offset="1" stopColor="#F96C13" />
      </linearGradient>
      <linearGradient id="Temple-paint6_linear" x1="16.2802" y1="20.0561" x2="13.8249" y2="10.2084" gradientUnits="userSpaceOnUse">
        <stop stopColor="#F96C13" />
        <stop offset="1" stopColor="#FB9828" />
      </linearGradient>
      <linearGradient id="Temple-paint7_linear" x1="14.8693" y1="26.7186" x2="13.2079" y2="20.0551" gradientUnits="userSpaceOnUse">
        <stop stopColor="#FB9828" />
        <stop offset="1" stopColor="#F96C13" />
      </linearGradient>
      <linearGradient id="Temple-paint8_linear" x1="19.1769" y1="31.6416" x2="17.5155" y2="24.9781" gradientUnits="userSpaceOnUse">
        <stop stopColor="#F96C13" />
        <stop offset="1" stopColor="#FB9828" />
      </linearGradient>
      <linearGradient id="Temple-paint9_linear" x1="24.1304" y1="30.5249" x2="18.4325" y2="7.67215" gradientUnits="userSpaceOnUse">
        <stop stopColor="#F96C13" />
        <stop offset="1" stopColor="#F84200" />
      </linearGradient>
      <linearGradient id="Temple-paint10_linear" x1="24.0134" y1="7.90671" x2="23.0928" y2="4.21416" gradientUnits="userSpaceOnUse">
        <stop stopColor="#F84200" />
        <stop offset="1" stopColor="#F96C13" />
      </linearGradient>
      <linearGradient id="Temple-paint11_linear" x1="18.7634" y1="30.7716" x2="26.1181" y2="30.7716" gradientUnits="userSpaceOnUse">
        <stop stopColor="#F84200" />
        <stop offset="1" stopColor="#F96C13" />
      </linearGradient>
      <clipPath id="Temple-clip0">
        <rect width="32" height="32" fill="white" transform="translate(0.5)" />
      </clipPath>
    </defs>
  </svg>
